<svg width="80" height="80" viewBox="0 0 80 80" fill="none" xmlns="http://www.w3.org/2000/svg">
<path d="M40.5596 71.3343L40.5572 71.3366C36.2634 75.6277 30.4409 78.0373 24.3705 78.0354C18.3 78.0335 12.479 75.6202 8.18793 71.3264C3.89685 67.0326 1.48722 61.2101 1.48914 55.1396C1.49105 49.0692 3.90435 43.2482 8.19814 38.9571L17.6195 29.5357C17.6196 29.5356 17.6197 29.5355 17.6198 29.5355C21.7442 25.4079 27.2899 23.0125 33.1223 22.8394C38.9549 22.6663 44.6331 24.7286 48.995 28.6044C49.4007 28.9643 49.7316 29.4005 49.9688 29.8882C50.2062 30.3762 50.3451 30.9062 50.3776 31.4479C50.4102 31.9896 50.3357 32.5324 50.1585 33.0453C49.9812 33.5582 49.7047 34.0312 49.3447 34.4372C48.9846 34.8433 48.5482 35.1744 48.0602 35.4118C47.5721 35.6492 47.0422 35.7881 46.5005 35.8206C45.9588 35.8532 45.416 35.7787 44.9031 35.6015C44.3901 35.4242 43.9172 35.1477 43.5111 34.7877L43.5105 34.7872C40.722 32.3108 37.0927 30.9933 33.365 31.1041C29.6372 31.2149 26.0926 32.7455 23.456 35.3831L23.4554 35.3837L14.034 44.7934L14.0336 44.7939C11.2905 47.5371 9.74952 51.2577 9.74952 55.1371C9.74952 59.0167 11.2907 62.7375 14.034 65.4808C16.7773 68.2241 20.4981 69.7653 24.3777 69.7653C28.2573 69.7653 31.978 68.2241 34.7214 65.4808L38.6038 61.5983C38.9869 61.2148 39.4418 60.9106 39.9426 60.703C40.4434 60.4954 40.9801 60.3885 41.5222 60.3885C42.0643 60.3885 42.6011 60.4954 43.1018 60.703C43.6025 60.9105 44.0574 61.2147 44.4405 61.5982C44.4405 61.5982 44.4406 61.5983 44.4406 61.5983L43.7331 62.3051C44.3188 62.8911 44.6477 63.6856 44.6477 64.514C44.6477 65.3425 44.3188 66.137 43.7331 66.723L40.5596 71.3343ZM40.5596 71.3343L44.4405 67.4299C44.4407 67.4297 44.441 67.4294 44.4412 67.4292L40.5596 71.3343ZM72.1081 7.9983V7.98394L71.8145 7.69091C67.5202 3.40628 61.7017 1 55.6355 1C49.5693 1 43.7508 3.40628 39.4565 7.69091L39.4554 7.69206L35.5726 11.5787C34.7993 12.3527 34.3651 13.4022 34.3656 14.4963C34.3661 15.5905 34.8012 16.6396 35.5752 17.4129C36.3492 18.1862 37.3987 18.6204 38.4928 18.6199C39.5868 18.6194 40.6357 18.1844 41.409 17.4106C41.4091 17.4105 41.4092 17.4104 41.4093 17.4103L45.2918 13.5278C48.0351 10.7845 51.7559 9.2433 55.6355 9.2433C59.5151 9.2433 63.2359 10.7845 65.9792 13.5278C68.7225 16.2711 70.2637 19.9918 70.2637 23.8715C70.2637 27.7511 68.7225 31.4718 65.9792 34.2151L65.9789 34.2154L56.5576 43.6446C56.5575 43.6447 56.5574 43.6448 56.5573 43.6448C53.9193 46.2807 50.374 47.8093 46.6464 47.918C42.9187 48.0268 39.2902 46.7074 36.503 44.2296L36.5021 44.2287C36.096 43.8687 35.623 43.5921 35.1101 43.4149C34.5972 43.2377 34.0544 43.1632 33.5127 43.1957C32.4187 43.2615 31.3956 43.7591 30.6685 44.5791C30.3085 44.9852 30.032 45.4581 29.8547 45.9711C29.6775 46.484 29.603 47.0268 29.6356 47.5685C29.7012 48.662 30.1985 49.6848 31.018 50.4118C35.3789 54.2887 41.0565 56.3524 46.889 56.1808C52.7215 56.0092 58.2679 53.6152 62.3934 49.4887C62.3934 49.4887 62.3934 49.4887 62.3935 49.4886L71.8153 40.0669L71.8159 40.0662C76.103 35.7716 78.5109 29.9514 78.5109 23.8832C78.5109 17.9543 76.2123 12.2621 72.1081 7.9983Z" fill="#0EA5E9" stroke="#0EA5E9" stroke-width="2"/>
</svg>
